#!OML:ASF H:\Terrain\Patient Classification 1\Animal2\Wednesday\Animal2.ASF
:FULLY-SPECIFIED
:DEGREES
4065
root 25.0457 15.3242 -19.4133 17.9584 -72.5484 -17.422
lowerback 9.52694 -4.31971 -0.666992
upperback 2.57675 -5.80369 2.59813
thorax -2.30165 -2.93065 3.70989
lowerneck -0.202137 -7.14321 13.2666
upperneck -10.1253 -11.1472 -15.2804
head -4.56024 -5.56207 -6.39319
rclavicle 7.36497e-014 -4.53229e-014
rhumerus -16.2978 21.3418 -92.2887
rradius 133.049
rwrist 8.28128
rhand -24.7467 10.6809
rfingers 7.12502
rthumb 1.75619 -19.2916
lclavicle 7.36497e-014 -4.53229e-014
lhumerus -25.3071 0.664135 78.4316
lradius 143.35
lwrist 43.6286
lhand 8.09665 36.8707
lfingers 7.12502
lthumb 33.3189 -296.197
rfemur -40.7546 24.721 3.55406
rtibia 59.3982
rfoot -31.925 -5.57511
rtoes -35.4862
lfemur -16.5037 10.8127 0.385321
ltibia 66.4698
lfoot -36.7227 6.2384
ltoes -34.9999
4066
root 25.0441 15.3277 -19.4058 17.6589 -72.6129 -17.1487
lowerback 9.61996 -4.33326 -0.749045
upperback 2.5148 -5.82662 2.59106
thorax -2.40814 -2.93888 3.76254
lowerneck -0.165817 -7.15238 13.1462
upperneck -10.0442 -11.1426 -15.2432
head -4.53275 -5.55521 -6.36015
rclavicle 3.1408e-014 1.2921e-014
rhumerus -16.4294 21.3724 -92.3004
rradius 133.018
rwrist 8.07669
rhand -24.2877 10.4706
rfingers 7.12502
rthumb 2.1995 -19.4978
lclavicle 3.1408e-014 1.2921e-014
lhumerus -25.4886 0.617833 78.5526
lradius 143.4
lwrist 43.6356
lhand 8.2898 36.8624
lfingers 7.12502
lthumb 33.5025 -296.245
rfemur -40.6644 24.7154 3.44322
rtibia 59.3426
rfoot -31.954 -5.62424
rtoes -35.026
lfemur -16.4309 10.8586 0.257286
ltibia 66.4562
lfoot -36.8548 6.28298
ltoes -35.0761
4067
root 25.0438 15.3287 -19.4015 17.6159 -72.6552 -17.1243
lowerback 9.62729 -4.33955 -0.768021
upperback 2.51828 -5.83686 2.60484
thorax -2.40448 -2.94429 3.78883
lowerneck -0.157681 -7.17023 13.0156
upperneck -10.0371 -11.1583 -15.1525
head -4.5221 -5.56102 -6.30755
rclavicle 2.97432e-014 -3.97569e-016
rhumerus -16.4765 21.3022 -92.2919
rradius 133.008
rwrist 8.12938
rhand -23.651 10.2637
rfingers 7.12502
rthumb 2.81437 -19.6975
lclavicle 2.97432e-014 -3.97569e-016
lhumerus -25.5573 0.572208 78.6646
lradius 143.425
lwrist 43.7718
lhand 8.09193 36.988
lfingers 7.12502
lthumb 33.3144 -296.079
rfemur -40.617 24.7338 3.41336
rtibia 59.2869
rfoot -31.8968 -5.73922
rtoes -35.4866
lfemur -16.3941 10.956 0.252818
ltibia 66.4666
lfoot -36.9018 5.87122
ltoes -34.6001
4068
root 25.0447 15.33 -19.396 17.9652 -72.6829 -17.5557
lowerback 9.67447 -4.33461 -0.597945
upperback 2.55293 -5.81529 2.60657
thorax -2.41266 -2.93468 3.69676
lowerneck -0.172866 -7.19049 12.9884
upperneck -10.0483 -11.1722 -15.0227
head -4.51647 -5.57104 -6.26035
rclavicle -9.97899e-014 1.17283e-014
rhumerus -16.4771 21.1702 -92.3773
rradius 132.977
rwrist 8.20719
rhand -23.2283 10.1582
rfingers 7.12502
rthumb 3.22259 -19.7972
lclavicle -9.97899e-014 1.17283e-014
lhumerus -25.573 0.424759 78.7542
lradius 143.383
lwrist 44.062
lhand 7.6899 37.0411
lfingers 7.12502
lthumb 32.9321 -295.944
rfemur -40.5211 24.795 3.5466
rtibia 59.2287
rfoot -31.8759 -5.73354
rtoes -35.8023
lfemur -16.2863 10.9639 0.378233
ltibia 66.4874
lfoot -36.9069 5.66972
ltoes -34.0985
4069
root 25.047 15.3295 -19.3918 18.0678 -72.683 -17.7383
lowerback 9.80633 -4.33173 -0.527426
upperback 2.52812 -5.80261 2.61856
thorax -2.51745 -2.92665 3.68256
lowerneck -0.087297 -7.19963 13.0242
upperneck -10.1019 -11.1768 -15.0022
head -4.54888 -5.57048 -6.25556
rclavicle -3.62285e-014 8.94531e-015
rhumerus -16.5564 21.0956 -92.4556
rradius 132.962
rwrist 8.17565
rhand -23.1936 10.0036
rfingers 7.12502
rthumb 3.25612 -19.9513
lclavicle -3.62285e-014 8.94531e-015
lhumerus -25.6835 0.269553 78.9043
lradius 143.332
lwrist 44.2975
lhand 7.43346 37.1527
lfingers 7.12502
lthumb 32.6882 -295.782
rfemur -40.4086 24.864 3.60005
rtibia 59.1761
rfoot -31.9555 -5.41441
rtoes -34.7996
lfemur -16.2058 10.9097 0.423581
ltibia 66.5082
lfoot -36.9674 5.79518
ltoes -34.1174
4070
root 25.0486 15.3301 -19.389 17.7789 -72.663 -17.4818
lowerback 9.87395 -4.34833 -0.56475
upperback 2.50821 -5.82727 2.5958
thorax -2.5724 -2.93733 3.68976
lowerneck 0.00307562 -7.20014 13.0278
upperneck -10.1473 -11.1719 -14.9999
head -4.57738 -5.56366 -6.25204
rclavicle 4.41053e-014 -1.82882e-014
rhumerus -16.6198 21.1096 -92.4829
rradius 132.974
rwrist 8.16878
rhand -23.2659 9.84289
rfingers 7.12502
rthumb 3.18633 -20.113
lclavicle 4.41053e-014 -1.82882e-014
lhumerus -25.7684 0.115445 79.0109
lradius 143.286
lwrist 44.4374
lhand 7.31454 37.1068
lfingers 7.12502
lthumb 32.575 -295.804
rfemur -40.326 24.8532 3.52389
rtibia 59.1197
rfoot -32.0192 -5.02391
rtoes -33.9326
lfemur -16.2002 10.8626 0.340767
ltibia 66.5215
lfoot -36.9934 5.79569
ltoes -34.2047
